<?xml version="1.0" standalone="no"?>
<!DOCTYPE svg PUBLIC "-//W3C//DTD SVG 20010904//EN"
 "http://www.w3.org/TR/2001/REC-SVG-20010904/DTD/svg10.dtd">
<svg version="1.0" xmlns="http://www.w3.org/2000/svg"
 width="512.000000pt" height="512.000000pt" viewBox="0 0 512.000000 512.000000"
 preserveAspectRatio="xMidYMid meet">

<g transform="translate(0.000000,512.000000) scale(0.100000,-0.100000)"
fill="#000000" stroke="none">
<path d="M1087 5097 c-67 -41 -77 -66 -77 -201 0 -139 13 -171 84 -205 39 -20
60 -21 294 -21 l252 0 0 -200 0 -199 -447 -3 c-400 -3 -451 -5 -479 -20 -56
-30 -64 -65 -64 -262 l0 -176 -145 0 c-158 0 -185 -7 -224 -56 -20 -25 -21
-39 -21 -259 0 -220 1 -234 21 -259 36 -46 69 -56 184 -56 98 0 105 -1 105
-20 0 -11 63 -704 140 -1540 105 -1147 143 -1528 155 -1550 9 -17 30 -40 48
-50 31 -20 63 -20 1625 -20 1788 0 1673 -5 1837 75 150 73 257 180 330 330 41
85 75 208 75 273 0 18 10 38 26 53 53 49 53 51 53 414 l0 338 -43 44 c-35 35
-45 54 -51 91 -8 55 -59 210 -87 267 -31 62 -47 75 -89 75 -66 0 -88 -62 -50
-138 22 -45 67 -177 77 -227 l6 -35 -1171 0 -1171 0 6 28 c52 227 158 418 323
583 156 156 332 257 549 315 120 32 334 43 462 25 249 -37 489 -154 665 -326
42 -41 85 -80 96 -85 43 -24 99 17 99 73 0 47 -161 200 -316 299 -127 82 -322
155 -484 183 -137 24 -346 22 -484 -5 -59 -12 -110 -19 -112 -17 -4 4 26 361
41 495 l6 52 105 0 c122 0 164 13 194 62 18 30 20 50 20 253 0 203 -2 223 -20
253 -32 52 -69 62 -235 62 l-145 0 0 189 c0 189 0 190 -26 220 -14 17 -42 35
-62 41 -23 6 -200 10 -454 10 l-417 0 -3 368 c-3 365 -3 367 -27 405 -12 21
-40 46 -62 57 -36 19 -60 20 -456 20 l-418 0 -38 -23z m851 -479 l2 -348 -75
0 -75 0 0 240 c0 251 -6 288 -45 304 -9 3 -145 6 -301 6 l-284 0 0 75 0 75
388 -2 387 -3 3 -347z m962 -658 l0 -150 -124 0 c-117 0 -127 -2 -152 -23 -33
-28 -37 -76 -9 -107 17 -19 30 -20 352 -20 l333 0 0 -165 0 -165 -1445 0
-1445 0 0 158 0 159 188 6 c103 4 536 7 963 7 740 0 778 1 800 18 33 27 30 78
-5 109 l-27 23 -765 0 -764 0 0 150 0 150 1050 0 1050 0 0 -150z m74 -832 c-7
-50 -13 -60 -113 -169 -58 -63 -515 -562 -1015 -1107 -500 -546 -911 -991
-913 -989 -1 2 -19 176 -39 387 l-35 383 29 31 c16 17 153 167 305 333 287
313 294 323 266 374 -9 18 1 32 75 113 l85 93 49 -5 48 -4 279 306 280 306
353 0 353 0 -7 -52z m1736 -1808 l0 -90 -217 -1 c-141 0 -230 -5 -251 -12 -18
-7 -68 -41 -112 -75 l-80 -63 -71 57 c-129 103 -55 94 -817 94 -368 0 -737 3
-820 7 l-152 6 0 84 0 83 1260 0 1260 0 0 -90z m-86 -672 c-34 -197 -143 -352
-306 -433 -135 -66 -142 -66 -902 -63 -625 3 -686 5 -736 22 -189 62 -337 213
-385 396 -8 30 -15 67 -15 83 l0 27 1175 0 1174 0 -5 -32z"/>
<path d="M3145 2345 c-14 -13 -25 -36 -25 -50 0 -14 11 -37 25 -50 19 -20 34
-25 77 -25 86 0 126 47 94 109 -18 35 -33 41 -97 41 -40 0 -55 -5 -74 -25z"/>
<path d="M3609 2301 c-17 -13 -23 -29 -23 -56 0 -52 30 -75 99 -75 69 0 99 23
99 75 0 52 -30 75 -99 75 -37 0 -60 -6 -76 -19z"/>
<path d="M2864 2128 c-22 -10 -44 -47 -44 -73 0 -8 11 -26 24 -42 21 -24 31
-27 81 -27 50 0 60 3 81 27 13 16 24 34 24 42 0 27 -23 63 -47 74 -29 14 -91
13 -119 -1z"/>
<path d="M3935 2115 c-31 -31 -32 -66 -1 -102 21 -24 31 -27 80 -27 44 0 61 4
78 21 31 31 28 80 -6 110 -39 33 -117 33 -151 -2z"/>
<path d="M3367 2068 c-38 -30 -38 -95 1 -124 9 -7 41 -14 70 -14 43 0 57 5 77
25 30 30 32 64 4 99 -18 23 -28 26 -78 26 -31 0 -65 -6 -74 -12z"/>
</g>
</svg>
